<svg id="Layer_1" enable-background="new 0 0 512 512" height="512" viewBox="0 0 512 512" width="512" xmlns="http://www.w3.org/2000/svg"><g><g><g><g><g><g id="XMLID_2394_"><g id="XMLID_2395_"><g id="XMLID_2396_"><g id="XMLID_2397_"><g id="XMLID_2398_"><g id="XMLID_2399_"><g id="XMLID_2400_"><g id="XMLID_2401_"><g id="XMLID_2402_"><g id="XMLID_2403_"><g id="XMLID_2404_"><g id="XMLID_2405_"><g id="XMLID_2406_"><g id="XMLID_2407_"><g><path d="m512 256c0 67.4-26.05 128.72-68.65 174.44-19.81 21.28-356.39 20.06-376.27-1.68-41.66-45.54-67.08-106.18-67.08-172.76 0-141.38 114.62-256 256-256s256 114.62 256 256z" fill="#ffe027"/></g></g></g></g></g></g></g></g></g></g></g></g></g></g></g></g></g></g></g><path d="m443.35 430.44c42.6-45.72 68.65-107.04 68.65-174.44 0-6.401-.235-12.747-.697-19.03l-174.914-165.105-140.274 237.511s76.802 76.802 135.29 135.29c58.266-1.984 104.936-6.696 111.945-14.226z" fill="#f9bd00"/><path d="m195.615 304.67-27.75 41.744-91.865-91.865c-6.705-6.705-6.756-17.56-.115-24.328l10.205-10.4c6.731-6.859 17.764-6.911 24.559-.116z" fill="#b77711"/><g><path d="m195.598 225.518h119.153v126.362h-119.153z" fill="#1e3547" transform="matrix(1 -.001 .001 1 -.297 .263)"/><path d="m255.175 225.491h59.576v126.362h-59.576z" fill="#0a1f2d" transform="matrix(1 -.001 .001 1 -.297 .293)"/><path d="m314.82 422.31h-117.64l-1.565-117.64h119.205z" fill="#3d566d"/><path d="m256 304.67h58.82v117.64h-58.82z" fill="#1e3547"/></g><path d="m352.55 136.99c-1.17 41.39-12.26 73.87-29.67 96.01-17.42 22.14-41.15 33.96-67.6 34.02h-.21c-52.9-.13-94.94-47.24-97.27-130.03-.21-7.49.06-14.42.75-20.85.756-7.029 6.172-10.4 7.861-16.265 1.372-4.765-1.131-12.213.769-16.265 18.51-39.55 60.18-46.74 88-46.74s69.49 7.19 87.99 46.74c2.12 4.52.106 10.855 1.562 16.265s6.383 9.895 7.068 16.265c.69 6.43.96 13.36.75 20.85z" fill="#3d566d"/><path d="m352.55 136.99c-1.17 41.39-12.26 73.87-29.67 96.01-17.26 21.94-40.72 33.74-66.88 34.01v-230.13c27.81.13 68.85 7.57 87.17 46.73 2.12 4.52.11 10.85 1.56 16.27 1.46 5.41 6.38 9.89 7.07 16.26.69 6.43.96 13.36.75 20.85z" fill="#1e3547"/><path d="m296.835 171.97h-83.319c-12.657 0-22.917-10.26-22.917-22.917v-14.546c0-12.657 10.26-22.917 22.917-22.917h83.319c12.657 0 22.917 10.26 22.917 22.917v14.546c0 12.657-10.26 22.917-22.917 22.917z" fill="#ffca8a"/><path d="m319.75 134.51v14.54c0 12.66-10.26 22.92-22.92 22.92h-40.83v-60.38h40.83c12.66 0 22.92 10.26 22.92 22.92z" fill="#f7a663"/><path d="m351.8 116.14h-193.25c1.37-12.74 4.39-23.49 8.63-32.53h175.99c4.24 9.04 7.26 19.79 8.63 32.53z" fill="#ff3627"/><path d="m351.8 116.14h-95.8v-32.53h87.17c4.24 9.04 7.26 19.79 8.63 32.53z" fill="#d31a16"/><path d="m443.35 386.02v44.42c-19.81 21.28-43.21 39.18-69.24 52.73-35.34 18.42-75.51 28.83-118.11 28.83-43.02 0-83.56-10.61-119.15-29.36l177.97-177.97h47.18c44.93 0 81.35 36.42 81.35 81.35z" fill="#1e3547"/><path d="m443.35 386.02v44.42c-19.81 21.28-43.21 39.18-69.24 52.73-35.34 18.42-75.51 28.83-118.11 28.83v-148.51l58.82-58.82h47.18c44.93 0 81.35 36.42 81.35 81.35z" fill="#0a1f2d"/><path d="m374.11 483.17c-35.34 18.42-75.51 28.83-118.11 28.83-74.8 0-142.11-32.08-188.92-83.24v-42.74c0-44.93 36.42-81.35 81.35-81.35h47.18z" fill="#1e3547"/><path d="m374.11 483.17c-35.34 18.42-75.51 28.83-118.11 28.83v-146.94z" fill="#122735"/></g></svg>